<?xml version="1.0" encoding="utf-8"?>
<!DOCTYPE svg PUBLIC "-//W3C//DTD SVG 1.1//EN" "http://www.w3.org/Graphics/SVG/1.1/DTD/svg11.dtd">
<svg version="1.1" id="Ebene_1" xmlns="http://www.w3.org/2000/svg" xmlns:xlink="http://www.w3.org/1999/xlink" x="0px" y="0px"
	 viewBox="0 0 595.28 139.764" style="enable-background:new 0 0 595.28 139.764;" xml:space="preserve">
<style type="text/css">
	.st0{clip-path:url(#SVGID_2_);fill:#FFFFFF;}
</style>
<g>
	<defs>
		<rect id="SVGID_1_" y="0" width="595.28" height="139.764"/>
	</defs>
	<clipPath id="SVGID_2_">
		<use xlink:href="#SVGID_1_"  style="overflow:visible;"/>
	</clipPath>
	<path class="st0" d="M446.109,110.627h-5.48c-28.977,0-57.948,0.079-86.925-0.088c-4.034-0.023-6.069,0.937-7.056,5.109
		c-1.613,6.834-3.969,13.487-5.879,20.256c-0.751,2.666-1.98,3.927-5.012,3.848c-8.058-0.218-16.125-0.144-24.187-0.037
		c-2.884,0.037-3.876-0.584-2.8-3.695c14.048-40.609,27.938-81.269,42.014-121.868c3.102-8.934,10.464-13.876,19.885-14.145
		c9.245-0.26,17.53,4.377,20.738,12.935c7.933,21.178,15.374,42.542,22.996,63.836c0.121,0.334,0.07,0.728,0.139,1.637h-18.781
		c-9.884,0-9.917,0.009-12.819-9.286c-3.482-11.146-6.899-22.319-10.353-33.474c-0.246-0.797-0.57-1.567-1.154-3.153
		c-0.575,1.423-0.918,2.105-1.127,2.823c-4.451,15.318-8.892,30.632-13.325,45.95c-1.442,4.989-1.368,5.1,3.76,5.1
		c24.187,0.009,48.375,0.088,72.562-0.083c3.575-0.028,5.095,1.127,6.083,4.451C441.31,97.205,443.679,103.534,446.109,110.627"/>
	<path class="st0" d="M564.138,78.414h-11.544c-4.664,0-9.333-0.148-13.988,0.06c-2.596,0.111-3.751-0.756-4.502-3.273
		c-3.876-13-7.937-25.944-11.952-38.903c-0.325-1.052-0.751-2.072-1.549-4.251c-5.341,18.466-10.376,35.871-15.578,53.845
		c1.901,0.185,3.44,0.468,4.979,0.468c24.317,0.028,48.639,0.079,72.956-0.051c3.19-0.014,4.646,0.964,5.573,4.038
		c1.943,6.477,4.33,12.815,6.746,19.829c-2.091,0.176-3.755,0.431-5.415,0.431c-28.731,0.028-57.462,0.014-86.192,0.023
		c-6.106,0.005-6.106,0.023-7.863,5.879c-1.943,6.5-3.992,12.972-5.786,19.509c-0.765,2.786-2.165,3.788-5.077,3.723
		c-7.937-0.185-15.875-0.056-23.816-0.074c-1.187-0.005-2.378-0.153-4.159-0.269c2.708-7.905,5.211-15.23,7.729-22.551
		c11.577-33.627,23.144-67.258,34.735-100.88c3.602-10.45,10.705-15.851,20.872-15.967c10.107-0.116,17.734,5.202,21.424,15.351
		c7.265,19.959,14.382,39.978,21.545,59.974C563.558,76.119,563.734,76.958,564.138,78.414"/>
	<path class="st0" d="M0,138.395c8.484-9.161,16.69-18.03,24.906-26.89c7.97-8.596,15.972-17.159,23.923-25.768
		c4.664-5.054,4.613-7.654-0.134-12.462C33.376,57.761,18.054,42.253,2.735,26.74c-0.779-0.788-1.521-1.613-2.698-2.861
		c1.59-0.079,2.652-0.172,3.714-0.176c16.89-0.009,33.775,0.06,50.66-0.07c2.782-0.019,4.692,0.867,6.593,2.8
		c15.735,15.99,31.559,31.893,47.341,47.837c3.672,3.714,3.792,6.634,0.236,10.45c-16.222,17.442-32.472,34.855-48.787,52.204
		c-0.923,0.983-2.508,1.887-3.788,1.896c-18.271,0.116-36.548,0.074-54.819,0.056C0.969,138.877,0.756,138.71,0,138.395"/>
	<path class="st0" d="M108.334,23.706c19.523,0,37.906-0.037,56.289,0.083c1.298,0.005,2.884,0.881,3.843,1.845
		c16.269,16.324,32.472,32.713,48.662,49.116c3.296,3.343,3.083,6.532-0.631,10.51c-13.399,14.368-27.28,28.318-40.053,43.224
		c-6.811,7.956-13.881,11.47-24.47,10.663c-13.144-1.006-26.427-0.241-39.649-0.241h-4.409c5.406-5.846,10.237-11.095,15.086-16.324
		c11.387-12.281,22.778-24.563,34.178-36.83c4.729-5.086,4.748-7.58-0.051-12.439c-15.04-15.235-30.089-30.465-45.134-45.699
		C110.972,26.571,109.994,25.481,108.334,23.706"/>
	<path class="st0" d="M256.692,71.157c0-21.415,0.088-42.83-0.083-64.24c-0.032-3.728,1.136-4.743,4.715-4.599
		c6.667,0.26,13.352,0.204,20.024,0.019c3.037-0.088,3.834,1.034,3.825,3.936c-0.07,43.08-0.083,86.165,0.019,129.24
		c0.005,3.384-1.094,4.34-4.363,4.233c-6.667-0.223-13.357-0.255-20.024,0.009c-3.468,0.139-4.191-1.159-4.177-4.353
		C256.752,113.986,256.692,92.571,256.692,71.157"/>
	<path class="st0" d="M420.566,139.676c-3.894,0-7.798-0.102-11.688,0.037c-2.383,0.088-3.811-0.821-4.52-3.055
		c-1.627-5.137-3.213-10.288-4.965-15.383c-0.719-2.096,0.139-2.944,1.98-2.958c8.424-0.051,16.848-0.13,25.263,0.144
		c1.284,0.042,3.106,1.618,3.658,2.921c2.003,4.724,3.477,9.667,5.336,14.46c1.08,2.791,0.533,3.973-2.619,3.867
		C428.865,139.574,424.716,139.676,420.566,139.676"/>
	<path class="st0" d="M585.981,139.678c-8.54,0-16.041,0.06-23.543-0.019c-8.229-0.083-7.381,1.484-10.186-7.539
		c-1.326-4.27-2.731-8.517-4.307-13.417h19.76c11.062,0,11.081-0.005,14.836,10.552
		C583.681,132.469,584.683,135.733,585.981,139.678"/>
</g>
<g>
</g>
<g>
</g>
<g>
</g>
<g>
</g>
<g>
</g>
<g>
</g>
</svg>
